<svg width="24" height="24" viewBox="0 0 24 24" fill="none" xmlns="http://www.w3.org/2000/svg">
<path d="M7.83984 14.1367L1.42383 7.73047C0.740234 7.04688 0.398438 6.35026 0.398438 5.64062C0.398438 4.92448 0.730469 4.23112 1.39453 3.56055L2.69336 2.26172C3.36393 1.59115 4.05729 1.25911 4.77344 1.26562C5.48958 1.26562 6.18945 1.60742 6.87305 2.29102L13.7969 9.26367L12.8203 10.1328L5.84766 3.16992C5.48958 2.81836 5.125 2.64258 4.75391 2.64258C4.38281 2.63607 4.02474 2.80859 3.67969 3.16016L2.30273 4.54688C1.95117 4.90495 1.77539 5.26628 1.77539 5.63086C1.77539 5.99544 1.95117 6.35677 2.30273 6.71484L8.77734 13.2188L7.83984 14.1367ZM7.20508 9.79102L3.55273 6.1582C3.48112 6.0931 3.44531 6.00846 3.44531 5.9043C3.45182 5.80013 3.48763 5.70898 3.55273 5.63086C3.62435 5.56576 3.71224 5.53646 3.81641 5.54297C3.92057 5.54297 4.00521 5.57227 4.07031 5.63086L7.72266 9.2832C7.79427 9.35482 7.83008 9.43945 7.83008 9.53711C7.83008 9.63477 7.79427 9.7194 7.72266 9.79102C7.65104 9.86263 7.56315 9.89844 7.45898 9.89844C7.36133 9.89844 7.27669 9.86263 7.20508 9.79102ZM8.40625 8.59961L4.77344 4.9375C4.70833 4.86589 4.67253 4.78451 4.66602 4.69336C4.66602 4.5957 4.70182 4.50781 4.77344 4.42969C4.83854 4.36458 4.91992 4.33203 5.01758 4.33203C5.12174 4.32552 5.20964 4.35807 5.28125 4.42969L8.93359 8.07227C8.9987 8.13737 9.03125 8.22201 9.03125 8.32617C9.03125 8.42383 8.99544 8.51497 8.92383 8.59961C8.85872 8.66471 8.77409 8.70052 8.66992 8.70703C8.56576 8.70703 8.47786 8.67122 8.40625 8.59961ZM20.9746 23.5801C20.8639 23.6842 20.737 23.7363 20.5938 23.7363C20.4505 23.7428 20.3008 23.694 20.1445 23.5898L17.0879 21.5195C16.9382 21.4219 16.8112 21.2982 16.707 21.1484C16.6029 20.9987 16.541 20.8359 16.5215 20.6602L16.3848 19.7812L11.8047 15.2109L12.7227 14.1758L17.752 19.2148L17.9473 20.3086L20.418 22.1738L21.3066 21.2852L19.4414 18.8047L18.3477 18.6191L13.2695 13.5605L14.1777 12.5156L18.9141 17.252L19.793 17.3887C20.151 17.4408 20.4408 17.6296 20.6621 17.9551L22.7031 21.002C22.8073 21.1517 22.8626 21.2982 22.8691 21.4414C22.8757 21.5911 22.8268 21.7214 22.7227 21.832L20.9746 23.5801ZM1.92188 22.4277C1.36198 21.8613 0.984375 21.2461 0.789062 20.582C0.60026 19.918 0.597005 19.2572 0.779297 18.5996C0.968099 17.9421 1.34245 17.3333 1.90234 16.7734C2.26042 16.4154 2.63477 16.1126 3.02539 15.8652C3.42253 15.6113 3.85221 15.3607 4.31445 15.1133C4.7832 14.8594 5.30729 14.5664 5.88672 14.2344C6.46615 13.8958 7.11719 13.4727 7.83984 12.9648C8.56901 12.4505 9.38932 11.8027 10.3008 11.0215C11.2188 10.2402 12.2507 9.27669 13.3965 8.13086L14.2461 8.98047C12.9896 10.237 11.8893 11.2754 10.9453 12.0957C10.0078 12.9095 9.1875 13.5703 8.48438 14.0781C7.78125 14.5794 7.16602 14.9831 6.63867 15.2891C6.11784 15.5951 5.64583 15.862 5.22266 16.0898C4.80599 16.3112 4.40885 16.5488 4.03125 16.8027C3.66016 17.0501 3.26953 17.3757 2.85938 17.7793C2.31901 18.3197 2.04883 18.9251 2.04883 19.5957C2.04883 20.2663 2.32878 20.888 2.88867 21.4609C3.45508 22.0208 4.07357 22.2975 4.74414 22.291C5.42122 22.291 6.02995 22.0176 6.57031 21.4707C6.97396 21.0671 7.29948 20.6764 7.54688 20.2988C7.80078 19.9277 8.03841 19.5339 8.25977 19.1172C8.48763 18.7005 8.75456 18.2285 9.06055 17.7012C9.36654 17.1738 9.77018 16.5618 10.2715 15.8652C10.7793 15.1621 11.4401 14.3385 12.2539 13.3945C13.0742 12.4505 14.1126 11.3503 15.3691 10.0938L16.2188 10.9531C15.0729 12.099 14.1094 13.1309 13.3281 14.0488C12.5469 14.9603 11.8991 15.7806 11.3848 16.5098C10.8704 17.2324 10.444 17.8835 10.1055 18.4629C9.77344 19.0423 9.48372 19.5632 9.23633 20.0254C8.98893 20.4941 8.73828 20.9238 8.48438 21.3145C8.23047 21.7116 7.92448 22.0892 7.56641 22.4473C7.01302 23.0072 6.4043 23.3783 5.74023 23.5605C5.08268 23.7493 4.42188 23.7461 3.75781 23.5508C3.10026 23.362 2.48828 22.9876 1.92188 22.4277ZM4.70508 20.875C4.37305 20.875 4.08984 20.7546 3.85547 20.5137C3.62109 20.2793 3.50391 19.9961 3.50391 19.6641C3.50391 19.332 3.62109 19.0488 3.85547 18.8145C4.08984 18.5801 4.37305 18.4629 4.70508 18.4629C5.03711 18.4629 5.32031 18.5801 5.55469 18.8145C5.79557 19.0488 5.91602 19.332 5.91602 19.6641C5.91602 19.9961 5.79557 20.2793 5.55469 20.5137C5.32031 20.7546 5.03711 20.875 4.70508 20.875ZM14.0703 10.2695C13.5104 9.70964 13.0872 9.08464 12.8008 8.39453C12.5143 7.69792 12.3646 6.98828 12.3516 6.26562C12.3385 5.53646 12.4622 4.83008 12.7227 4.14648C12.9896 3.46289 13.3932 2.85417 13.9336 2.32031C14.5195 1.72786 15.1934 1.30469 15.9551 1.05078C16.7233 0.790365 17.5176 0.702474 18.3379 0.787109C19.1582 0.865234 19.9395 1.1224 20.6816 1.55859L19.7246 2.51562C18.9108 2.09896 18.0514 1.95573 17.1465 2.08594C16.248 2.20964 15.4798 2.59049 14.8418 3.22852C14.2884 3.77539 13.9238 4.41667 13.748 5.15234C13.5788 5.88802 13.5983 6.63021 13.8066 7.37891C14.015 8.12109 14.4089 8.7819 14.9883 9.36133C15.5677 9.93424 16.2285 10.3249 16.9707 10.5332C17.7194 10.7415 18.4583 10.7611 19.1875 10.5918C19.9232 10.4225 20.5677 10.0645 21.1211 9.51758C21.5443 9.0944 21.8535 8.60938 22.0488 8.0625C22.2507 7.50911 22.3353 6.9362 22.3027 6.34375C22.2702 5.74479 22.1172 5.16536 21.8438 4.60547L22.791 3.64844C23.2272 4.39714 23.4844 5.1849 23.5625 6.01172C23.6471 6.83203 23.5592 7.6263 23.2988 8.39453C23.0449 9.16276 22.625 9.83984 22.0391 10.4258C21.4987 10.9661 20.8867 11.3665 20.2031 11.627C19.5195 11.8874 18.8132 12.0111 18.084 11.998C17.3548 11.9785 16.6419 11.8255 15.9453 11.5391C15.2552 11.2526 14.6302 10.8294 14.0703 10.2695ZM17.0293 5.88477C16.6582 5.51367 16.4661 5.11654 16.4531 4.69336C16.4401 4.27018 16.6159 3.87956 16.9805 3.52148L19.0117 1.48047L19.9004 2.33984L18.0156 4.20508C17.7357 4.48503 17.752 4.78451 18.0645 5.10352L19.2559 6.30469C19.5488 6.60417 19.8418 6.60417 20.1348 6.30469L22 4.45898L22.8594 5.30859L20.8086 7.36914C20.4635 7.71419 20.0794 7.88346 19.6562 7.87695C19.2331 7.87044 18.8392 7.6849 18.4746 7.32031L17.0293 5.88477Z" fill="#FFA600"/>
</svg>
