<svg width="24" height="24" viewBox="0 0 24 24" fill="none" xmlns="http://www.w3.org/2000/svg">
<path d="M11.0137 22.3887C10.6361 22.3887 10.3105 22.2812 10.0371 22.0664C9.76367 21.8581 9.58789 21.5716 9.50977 21.207L9.08008 19.3809L8.76758 19.2734L7.18555 20.25C6.86654 20.4453 6.53451 20.5202 6.18945 20.4746C5.8444 20.4355 5.53841 20.2826 5.27148 20.0156L3.91406 18.6582C3.64062 18.3848 3.48112 18.0788 3.43555 17.7402C3.39648 17.3952 3.47786 17.0664 3.67969 16.7539L4.66602 15.1719L4.55859 14.8789L2.73242 14.4492C2.37435 14.3711 2.08789 14.1953 1.87305 13.9219C1.6582 13.6419 1.55078 13.3164 1.55078 12.9453V11.0117C1.55078 10.6406 1.65495 10.3184 1.86328 10.0449C2.07812 9.77148 2.36784 9.59245 2.73242 9.50781L4.53906 9.06836L4.65625 8.75586L3.66992 7.17383C3.4681 6.86133 3.38672 6.53581 3.42578 6.19727C3.47135 5.85221 3.63086 5.54297 3.9043 5.26953L5.26172 3.90234C5.52865 3.64193 5.83138 3.48893 6.16992 3.44336C6.51497 3.39779 6.84701 3.47266 7.16602 3.66797L8.74805 4.64453L9.08008 4.51758L9.50977 2.69141C9.58789 2.33333 9.76367 2.04688 10.0371 1.83203C10.3105 1.61719 10.6361 1.50977 11.0137 1.50977H12.9863C13.3639 1.50977 13.6862 1.61719 13.9531 1.83203C14.2266 2.04688 14.4056 2.33333 14.4902 2.69141L14.9102 4.51758L15.2422 4.64453L16.834 3.66797C17.1465 3.47266 17.4753 3.39779 17.8203 3.44336C18.1654 3.48893 18.4681 3.64193 18.7285 3.90234L20.0957 5.26953C20.3691 5.54297 20.5254 5.85221 20.5645 6.19727C20.6035 6.53581 20.5254 6.86133 20.3301 7.17383L19.334 8.75586L19.4609 9.06836L21.2676 9.50781C21.6257 9.59245 21.9121 9.77148 22.127 10.0449C22.3418 10.3184 22.4492 10.6406 22.4492 11.0117V12.9453C22.4492 13.3164 22.3418 13.6419 22.127 13.9219C21.9121 14.1953 21.6257 14.3711 21.2676 14.4492L19.4414 14.8789L19.3242 15.1719L20.3203 16.7539C20.5156 17.0664 20.5905 17.3952 20.5449 17.7402C20.5059 18.0788 20.3529 18.3848 20.0859 18.6582L18.7188 20.0156C18.4518 20.2826 18.1458 20.4355 17.8008 20.4746C17.4557 20.5202 17.127 20.4453 16.8145 20.25L15.2227 19.2734L14.9102 19.3809L14.4902 21.207C14.4056 21.5716 14.2266 21.8581 13.9531 22.0664C13.6862 22.2812 13.3639 22.3887 12.9863 22.3887H11.0137ZM11.1699 20.8652H12.8301C12.9928 20.8652 13.084 20.7904 13.1035 20.6406L13.6992 18.2188C13.9987 18.1471 14.2819 18.056 14.5488 17.9453C14.8158 17.8281 15.0534 17.7044 15.2617 17.5742L17.3906 18.8828C17.5273 18.974 17.651 18.9577 17.7617 18.834L18.9043 17.6816C19.015 17.584 19.028 17.4635 18.9434 17.3203L17.6348 15.2109C17.752 15.0026 17.8659 14.765 17.9766 14.498C18.0938 14.2311 18.1914 13.9479 18.2695 13.6484L20.7012 13.0723C20.8509 13.0462 20.9258 12.9518 20.9258 12.7891V11.1582C20.9258 11.002 20.8509 10.9076 20.7012 10.875L18.2793 10.2891C18.2012 9.97005 18.1003 9.67383 17.9766 9.40039C17.8529 9.12695 17.7454 8.89909 17.6543 8.7168L18.9531 6.60742C19.0443 6.46419 19.0345 6.33724 18.9238 6.22656L17.7715 5.09375C17.6543 4.98958 17.5273 4.97331 17.3906 5.04492L15.2715 6.33398C15.0566 6.2168 14.8158 6.10286 14.5488 5.99219C14.2884 5.875 14.0052 5.77734 13.6992 5.69922L13.1035 3.25781C13.084 3.10807 12.9928 3.0332 12.8301 3.0332H11.1699C11.0072 3.0332 10.9128 3.10807 10.8867 3.25781L10.3105 5.67969C10.0176 5.75781 9.72786 5.85547 9.44141 5.97266C9.16146 6.08984 8.91732 6.20703 8.70898 6.32422L6.59961 5.04492C6.46289 4.97331 6.33919 4.98958 6.22852 5.09375L5.06641 6.22656C4.96224 6.33724 4.95247 6.46419 5.03711 6.60742L6.33594 8.7168C6.2513 8.89909 6.14388 9.12695 6.01367 9.40039C5.88997 9.67383 5.78906 9.97005 5.71094 10.2891L3.29883 10.875C3.14909 10.9076 3.07422 11.002 3.07422 11.1582V12.7891C3.07422 12.9518 3.14909 13.0462 3.29883 13.0723L5.7207 13.6484C5.79883 13.9479 5.89648 14.2311 6.01367 14.498C6.13086 14.765 6.24479 15.0026 6.35547 15.2109L5.04688 17.3203C4.96875 17.4635 4.98177 17.584 5.08594 17.6816L6.23828 18.834C6.34896 18.9577 6.4694 18.974 6.59961 18.8828L8.72852 17.5742C8.93685 17.7044 9.17448 17.8281 9.44141 17.9453C9.71484 18.056 10.0013 18.1471 10.3008 18.2188L10.8867 20.6406C10.9128 20.7904 11.0072 20.8652 11.1699 20.8652ZM12 15.6699C11.3099 15.6699 10.6816 15.5039 10.1152 15.1719C9.55534 14.8333 9.10938 14.3841 8.77734 13.8242C8.44531 13.2578 8.2793 12.6328 8.2793 11.9492C8.2793 11.2591 8.44531 10.6341 8.77734 10.0742C9.10938 9.51432 9.55534 9.06836 10.1152 8.73633C10.6816 8.39779 11.3099 8.22852 12 8.22852C12.6836 8.22852 13.3053 8.39779 13.8652 8.73633C14.4316 9.06836 14.8809 9.51432 15.2129 10.0742C15.5514 10.6341 15.7207 11.2591 15.7207 11.9492C15.7207 12.6328 15.5514 13.2578 15.2129 13.8242C14.8809 14.3841 14.4316 14.8333 13.8652 15.1719C13.3053 15.5039 12.6836 15.6699 12 15.6699ZM12 14.1562C12.4036 14.1562 12.7715 14.0586 13.1035 13.8633C13.4421 13.6615 13.709 13.3945 13.9043 13.0625C14.1061 12.724 14.207 12.3529 14.207 11.9492C14.207 11.5391 14.1061 11.168 13.9043 10.8359C13.709 10.5039 13.4421 10.2402 13.1035 10.0449C12.7715 9.8431 12.4036 9.74219 12 9.74219C11.5898 9.74219 11.2188 9.8431 10.8867 10.0449C10.5547 10.2402 10.2878 10.5039 10.0859 10.8359C9.89062 11.168 9.79297 11.5391 9.79297 11.9492C9.79297 12.3529 9.89062 12.724 10.0859 13.0625C10.2878 13.3945 10.5547 13.6615 10.8867 13.8633C11.2188 14.0586 11.5898 14.1562 12 14.1562Z" fill="#FFA600"/>
</svg>
