<svg width="24" height="25" viewBox="0 0 24 25" fill="none" xmlns="http://www.w3.org/2000/svg">
<path d="M7.87891 11.1914C7.65755 11.1914 7.46224 11.11 7.29297 10.9473C7.13021 10.778 7.04883 10.5827 7.04883 10.3613C7.04883 10.1335 7.13021 9.93815 7.29297 9.77539C7.46224 9.61263 7.65755 9.53125 7.87891 9.53125C8.10677 9.53125 8.30208 9.61263 8.46484 9.77539C8.6276 9.93164 8.70898 10.127 8.70898 10.3613C8.70898 10.5892 8.6276 10.7845 8.46484 10.9473C8.30208 11.11 8.10677 11.1914 7.87891 11.1914ZM7.87891 14.6484C7.65104 14.6484 7.45573 14.5703 7.29297 14.4141C7.13021 14.2513 7.04883 14.0527 7.04883 13.8184C7.04883 13.597 7.13021 13.4049 7.29297 13.2422C7.45573 13.0794 7.65104 12.998 7.87891 12.998C8.10677 12.998 8.30208 13.0794 8.46484 13.2422C8.6276 13.3984 8.70898 13.5905 8.70898 13.8184C8.70898 14.0527 8.6276 14.2513 8.46484 14.4141C8.30208 14.5703 8.10677 14.6484 7.87891 14.6484ZM7.87891 18.3105C7.65755 18.3105 7.46224 18.2292 7.29297 18.0664C7.13021 17.8971 7.04883 17.7018 7.04883 17.4805C7.04883 17.2526 7.13021 17.0573 7.29297 16.8945C7.46224 16.7318 7.65755 16.6504 7.87891 16.6504C8.10677 16.6504 8.30208 16.7318 8.46484 16.8945C8.6276 17.0508 8.70898 17.2461 8.70898 17.4805C8.70898 17.7083 8.6276 17.9036 8.46484 18.0664C8.30208 18.2292 8.10677 18.3105 7.87891 18.3105ZM10.4863 10.9668C10.3171 10.9668 10.1706 10.9082 10.0469 10.791C9.92969 10.6673 9.87109 10.5241 9.87109 10.3613C9.87109 10.1921 9.92969 10.0488 10.0469 9.93164C10.1706 9.80794 10.3171 9.74609 10.4863 9.74609H16.3457C16.5085 9.74609 16.6484 9.80794 16.7656 9.93164C16.8893 10.0488 16.9512 10.1921 16.9512 10.3613C16.9512 10.5241 16.8893 10.6673 16.7656 10.791C16.6484 10.9082 16.5085 10.9668 16.3457 10.9668H10.4863ZM10.4863 14.4336C10.3105 14.4336 10.1641 14.375 10.0469 14.2578C9.92969 14.1341 9.87109 13.9876 9.87109 13.8184C9.87109 13.6556 9.92969 13.5156 10.0469 13.3984C10.1641 13.2812 10.3105 13.2227 10.4863 13.2227H16.3457C16.515 13.2227 16.6582 13.2812 16.7754 13.3984C16.8926 13.5156 16.9512 13.6556 16.9512 13.8184C16.9512 13.9876 16.8926 14.1341 16.7754 14.2578C16.6582 14.375 16.515 14.4336 16.3457 14.4336H10.4863ZM10.4863 18.0859C10.3171 18.0859 10.1706 18.0273 10.0469 17.9102C9.92969 17.7865 9.87109 17.6432 9.87109 17.4805C9.87109 17.3112 9.92969 17.168 10.0469 17.0508C10.1641 16.9336 10.3105 16.875 10.4863 16.875H16.3457C16.515 16.875 16.6582 16.9336 16.7754 17.0508C16.8926 17.168 16.9512 17.3112 16.9512 17.4805C16.9512 17.6432 16.8893 17.7865 16.7656 17.9102C16.6484 18.0273 16.5085 18.0859 16.3457 18.0859H10.4863ZM6.81445 24.2188C5.80534 24.2188 5.04688 23.9616 4.53906 23.4473C4.03776 22.9395 3.78711 22.1745 3.78711 21.1523V6.34766C3.78711 5.34505 4.02799 4.58333 4.50977 4.0625C4.99805 3.54167 5.73047 3.28125 6.70703 3.28125H6.94141C6.9349 3.32031 6.93164 3.36263 6.93164 3.4082C6.93164 3.44727 6.93164 3.48633 6.93164 3.52539V4.4043C6.93164 4.58659 6.94466 4.73633 6.9707 4.85352H6.73633C6.2806 4.85352 5.93555 4.99023 5.70117 5.26367C5.47331 5.53711 5.35938 5.90495 5.35938 6.36719V21.1328C5.35938 21.6211 5.48633 21.9954 5.74023 22.2559C6.00065 22.5163 6.38477 22.6465 6.89258 22.6465H17.1074C17.6152 22.6465 17.9961 22.5163 18.25 22.2559C18.5104 21.9954 18.6406 21.6211 18.6406 21.1328V6.36719C18.6406 5.90495 18.5234 5.53711 18.2891 5.26367C18.0612 4.99023 17.7194 4.85352 17.2637 4.85352H17.0293C17.0553 4.73633 17.0684 4.58659 17.0684 4.4043V3.52539C17.0684 3.48633 17.0684 3.44727 17.0684 3.4082C17.0684 3.36263 17.0651 3.32031 17.0586 3.28125H17.293C18.2695 3.28125 18.9987 3.54167 19.4805 4.0625C19.9688 4.58333 20.2129 5.34505 20.2129 6.34766V21.1523C20.2129 22.1745 19.959 22.9395 19.4512 23.4473C18.9499 23.9616 18.1947 24.2188 17.1855 24.2188H6.81445ZM8.98242 5.51758C8.69596 5.51758 8.47135 5.43294 8.30859 5.26367C8.15234 5.0944 8.07422 4.85677 8.07422 4.55078V3.52539C8.07422 3.2194 8.15234 2.98177 8.30859 2.8125C8.47135 2.64323 8.69596 2.55859 8.98242 2.55859H9.88086C9.91341 2.00521 10.1315 1.5332 10.5352 1.14258C10.9453 0.751953 11.4336 0.556641 12 0.556641C12.5664 0.556641 13.0514 0.751953 13.4551 1.14258C13.8652 1.5332 14.0866 2.00521 14.1191 2.55859H15.0176C15.304 2.55859 15.5254 2.64323 15.6816 2.8125C15.8444 2.98177 15.9258 3.2194 15.9258 3.52539V4.55078C15.9258 4.85677 15.8444 5.0944 15.6816 5.26367C15.5254 5.43294 15.304 5.51758 15.0176 5.51758H8.98242ZM12 3.48633C12.2344 3.48633 12.4329 3.40169 12.5957 3.23242C12.765 3.06315 12.8496 2.86458 12.8496 2.63672C12.8496 2.39583 12.765 2.19401 12.5957 2.03125C12.4329 1.86198 12.2344 1.77734 12 1.77734C11.7656 1.77734 11.5638 1.86198 11.3945 2.03125C11.2318 2.19401 11.1504 2.39583 11.1504 2.63672C11.1504 2.86458 11.2318 3.06315 11.3945 3.23242C11.5638 3.40169 11.7656 3.48633 12 3.48633Z" fill="#FFA600"/>
</svg>
